<?xml version="1.0" encoding="UTF-8" standalone="no"?>
<svg
   width="24"
   height="24"
   version="1.1"
   id="svg1"
   sodipodi:docname="linkedin.svg"
   inkscape:version="1.3.2 (091e20e, 2023-11-25, custom)"
   xmlns:inkscape="http://www.inkscape.org/namespaces/inkscape"
   xmlns:sodipodi="http://sodipodi.sourceforge.net/DTD/sodipodi-0.dtd"
   xmlns="http://www.w3.org/2000/svg"
   xmlns:svg="http://www.w3.org/2000/svg">
  <defs
     id="defs1" />
  <sodipodi:namedview
     id="namedview1"
     pagecolor="#ffffff"
     bordercolor="#000000"
     borderopacity="0.25"
     inkscape:showpageshadow="2"
     inkscape:pageopacity="0.0"
     inkscape:pagecheckerboard="0"
     inkscape:deskcolor="#d1d1d1"
     inkscape:zoom="48.875"
     inkscape:cx="12"
     inkscape:cy="12"
     inkscape:window-width="2560"
     inkscape:window-height="1369"
     inkscape:window-x="-8"
     inkscape:window-y="-8"
     inkscape:window-maximized="1"
     inkscape:current-layer="svg1" />
  <path
     fill="#33323D"
     d="M21.6 0H2.4C1.08 0 0 1.08 0 2.4v19.2C0 22.92 1.08 24 2.4 24h19.2c1.32 0 2.4-1.08 2.4-2.4V2.4C24 1.08 22.92 0 21.6 0zM7.2 20.4H3.6V9.6h3.6v10.8zM5.4 7.56c-1.2 0-2.16-.96-2.16-2.16 0-1.2.96-2.16 2.16-2.16 1.2 0 2.16.96 2.16 2.16 0 1.2-.96 2.16-2.16 2.16zm15 12.84h-3.6v-6.36c0-.96-.84-1.8-1.8-1.8-.96 0-1.8.84-1.8 1.8v6.36H9.6V9.6h3.6v1.44c.6-.96 1.92-1.68 3-1.68 2.28 0 4.2 1.92 4.2 4.2v6.84z"
     id="path1"
     style="fill:#ffffff;fill-opacity:1" />
</svg>
